# Blender 4.0.2
# www.blender.org
mtllib ar_marker_box.mtl
o Cube
v 0.140000 0.140000 -0.140000
v 0.140000 -0.140000 -0.140000
v 0.140000 0.140000 0.140000
v 0.140000 -0.140000 0.140000
v -0.140000 0.140000 -0.140000
v -0.140000 -0.140000 -0.140000
v -0.140000 0.140000 0.140000
v -0.140000 -0.140000 0.140000
vn -0.0000 1.0000 -0.0000
vn -0.0000 -0.0000 1.0000
vn -1.0000 -0.0000 -0.0000
vn -0.0000 -1.0000 -0.0000
vn 1.0000 -0.0000 -0.0000
vn -0.0000 -0.0000 -1.0000
vt 0.666667 0.500000
vt 1.000000 0.500000
vt 1.000000 0.750000
vt 0.666667 0.750000
vt 0.333333 0.750000
vt 0.666667 1.000000
vt 0.333333 1.000000
vt 0.333333 0.000000
vt 0.666667 0.000000
vt 0.666667 0.250000
vt 0.333333 0.250000
vt 0.000000 0.500000
vt 0.333333 0.500000
vt 0.000000 0.750000
s 0
usemtl Material
f 1/1/1 5/2/1 7/3/1 3/4/1
f 4/5/2 3/4/2 7/6/2 8/7/2
f 8/8/3 7/9/3 5/10/3 6/11/3
f 6/12/4 2/13/4 4/5/4 8/14/4
f 2/13/5 1/1/5 3/4/5 4/5/5
f 6/11/6 5/10/6 1/1/6 2/13/6
